{
  "accessors": [
    {
      "bufferView": 2,
      "componentType": 5126,
      "count": 4863,
      "max": [
        0.94301438331604,
        1.161801815032959,
        1.6231436729431152
      ],
      "min": [
        -0.9430153369903564,
        -1.3800113201141357,
        -1.215342402458191
      ],
      "type": "VEC3"
    },
    {
      "bufferView": 2,
      "byteOffset": 58356,
      "componentType": 5126,
      "count": 4863,
      "max": [
        0.9999999403953552,
        0.9988486766815186,
        0.9999998807907104
      ],
      "min": [
        -0.9999999403953552,
        -1.0,
        -1.0
      ],
      "type": "VEC3"
    },
    {
      "bufferView": 1,
      "componentType": 5126,
      "count": 4863,
      "max": [
        1.0000001192092896,
        1.0000001192092896
      ],
      "min": [
        0.0,
        0.44339120388031006
      ],
      "type": "VEC2"
    },
    {
      "bufferView": 0,
      "componentType": 5125,
      "count": 19200,
      "type": "SCALAR"
    },
    {
      "bufferView": 2,
      "byteOffset": 116712,
      "componentType": 5126,
      "count": 2913,
      "max": [
        0.9730098247528076,
        1.1917669773101807,
        1.6530933380126953
      ],
      "min": [
        -0.973010778427124,
        -0.44703400135040283,
        -1.2453378438949585
      ],
      "type": "VEC3"
    },
    {
      "bufferView": 2,
      "byteOffset": 151668,
      "componentType": 5126,
      "count": 2913,
      "max": [
        0.9999886155128479,
        0.9973199963569641,
        0.9999887347221375
      ],
      "min": [
        -0.9999886155128479,
        -0.9988492727279663,
        -0.9989109635353088
      ],
      "type": "VEC3"
    },
    {
      "bufferView": 1,
      "byteOffset": 38904,
      "componentType": 5126,
      "count": 2913,
      "max": [
        1.0000001192092896,
        1.0000001192092896
      ],
      "min": [
        0.0,
        0.4712545871734619
      ],
      "type": "VEC2"
    },
    {
      "bufferView": 0,
      "byteOffset": 76800,
      "componentType": 5125,
      "count": 12792,
      "type": "SCALAR"
    },
    {
      "bufferView": 2,
      "byteOffset": 186624,
      "componentType": 5126,
      "count": 826,
      "max": [
        0.9657642245292664,
        -0.44279760122299194,
        0.6847980618476868
      ],
      "min": [
        -0.9657652974128723,
        -1.3035396337509155,
        -1.2381460666656494
      ],
      "type": "VEC3"
    },
    {
      "bufferView": 2,
      "byteOffset": 196536,
      "componentType": 5126,
      "count": 826,
      "max": [
        0.999991238117218,
        0.04727718234062195,
        0.9999913573265076
      ],
      "min": [
        -0.999991238117218,
        -0.04750712960958481,
        -0.9999912977218628
      ],
      "type": "VEC3"
    },
    {
      "bufferView": 1,
      "byteOffset": 62208,
      "componentType": 5126,
      "count": 826,
      "max": [
        1.0000001192092896,
        0.47143685817718506
      ],
      "min": [
        0.0,
        0.44339120388031006
      ],
      "type": "VEC2"
    },
    {
      "bufferView": 0,
      "byteOffset": 127968,
      "componentType": 5125,
      "count": 2304,
      "type": "SCALAR"
    },
    {
      "bufferView": 2,
      "byteOffset": 206448,
      "componentType": 5126,
      "count": 1968,
      "max": [
        0.9653672575950623,
        0.02503184787929058,
        1.5172960758209229
      ],
      "min": [
        -0.9653682112693787,
        -1.4100112915039063,
        -1.237751841545105
      ],
      "type": "VEC3"
    },
    {
      "bufferView": 2,
      "byteOffset": 230064,
      "componentType": 5126,
      "count": 1968,
      "max": [
        1.0,
        1.0,
        0.9999999403953552
      ],
      "min": [
        -1.0,
        -0.9505963325500488,
        -0.9999998807907104
      ],
      "type": "VEC3"
    },
    {
      "bufferView": 1,
      "byteOffset": 68816,
      "componentType": 5126,
      "count": 1968,
      "max": [
        1.0000001192092896,
        0.49382203817367554
      ],
      "min": [
        0.0,
        0.44339120388031006
      ],
      "type": "VEC2"
    },
    {
      "bufferView": 0,
      "byteOffset": 137184,
      "componentType": 5125,
      "count": 6408,
      "type": "SCALAR"
    },
    {
      "bufferView": 2,
      "byteOffset": 253680,
      "componentType": 5126,
      "count": 6331,
      "max": [
        1.0653808116912842,
        1.1752769947052002,
        1.0678693056106567
      ],
      "min": [
        -10.584661483764648,
        -1.8783077001571655,
        -1.0727649927139282
      ],
      "type": "VEC3"
    },
    {
      "bufferView": 2,
      "byteOffset": 329652,
      "componentType": 5126,
      "count": 6331,
      "max": [
        0.9977832436561584,
        0.9995059370994568,
        0.9973940849304199
      ],
      "min": [
        -0.9973940849304199,
        -0.9951390624046326,
        -0.9951364994049072
      ],
      "type": "VEC3"
    },
    {
      "bufferView": 1,
      "byteOffset": 84560,
      "componentType": 5126,
      "count": 6331,
      "max": [
        1.0000001192092896,
        1.0
      ],
      "min": [
        0.0,
        0.0
      ],
      "type": "VEC2"
    },
    {
      "bufferView": 0,
      "byteOffset": 162816,
      "componentType": 5125,
      "count": 14106,
      "type": "SCALAR"
    },
    {
      "bufferView": 2,
      "byteOffset": 405624,
      "componentType": 5126,
      "count": 845,
      "max": [
        1.0000001192092896,
        5.38994026184082,
        4.886829853057861
      ],
      "min": [
        -1.0030661821365356,
        -0.9723837375640869,
        -0.9670544266700745
      ],
      "type": "VEC3"
    },
    {
      "bufferView": 2,
      "byteOffset": 415764,
      "componentType": 5126,
      "count": 845,
      "max": [
        0.9999998807907104,
        1.0,
        0.9999992251396179
      ],
      "min": [
        -0.9999994039535522,
        -0.9999996423721313,
        -1.0
      ],
      "type": "VEC3"
    },
    {
      "bufferView": 1,
      "byteOffset": 135208,
      "componentType": 5126,
      "count": 845,
      "max": [
        0.8750001192092896,
        1.0000001192092896
      ],
      "min": [
        0.125,
        0.0
      ],
      "type": "VEC2"
    },
    {
      "bufferView": 0,
      "byteOffset": 219240,
      "componentType": 5125,
      "count": 3840,
      "type": "SCALAR"
    },
    {
      "bufferView": 2,
      "byteOffset": 425904,
      "componentType": 5126,
      "count": 845,
      "max": [
        1.0000001192092896,
        5.38994026184082,
        4.886829853057861
      ],
      "min": [
        -1.0030661821365356,
        -0.9723837375640869,
        -0.9670544266700745
      ],
      "type": "VEC3"
    },
    {
      "bufferView": 2,
      "byteOffset": 436044,
      "componentType": 5126,
      "count": 845,
      "max": [
        0.9999998807907104,
        1.0,
        0.9999992251396179
      ],
      "min": [
        -0.9999994039535522,
        -0.9999996423721313,
        -1.0
      ],
      "type": "VEC3"
    },
    {
      "bufferView": 1,
      "byteOffset": 141968,
      "componentType": 5126,
      "count": 845,
      "max": [
        0.8750001192092896,
        1.0000001192092896
      ],
      "min": [
        0.125,
        0.0
      ],
      "type": "VEC2"
    },
    {
      "bufferView": 0,
      "byteOffset": 234600,
      "componentType": 5125,
      "count": 3840,
      "type": "SCALAR"
    },
    {
      "bufferView": 2,
      "byteOffset": 446184,
      "componentType": 5126,
      "count": 845,
      "max": [
        1.0000001192092896,
        5.38994026184082,
        4.886829853057861
      ],
      "min": [
        -1.0030661821365356,
        -0.9723837375640869,
        -0.9670544266700745
      ],
      "type": "VEC3"
    },
    {
      "bufferView": 2,
      "byteOffset": 456324,
      "componentType": 5126,
      "count": 845,
      "max": [
        0.9999998807907104,
        1.0,
        0.9999992251396179
      ],
      "min": [
        -0.9999994039535522,
        -0.9999996423721313,
        -1.0
      ],
      "type": "VEC3"
    },
    {
      "bufferView": 1,
      "byteOffset": 148728,
      "componentType": 5126,
      "count": 845,
      "max": [
        0.8750001192092896,
        1.0000001192092896
      ],
      "min": [
        0.125,
        0.0
      ],
      "type": "VEC2"
    },
    {
      "bufferView": 0,
      "byteOffset": 249960,
      "componentType": 5125,
      "count": 3840,
      "type": "SCALAR"
    },
    {
      "bufferView": 2,
      "byteOffset": 466464,
      "componentType": 5126,
      "count": 845,
      "max": [
        1.0000001192092896,
        5.38994026184082,
        4.886829853057861
      ],
      "min": [
        -1.0030661821365356,
        -0.9723837375640869,
        -0.9670544266700745
      ],
      "type": "VEC3"
    },
    {
      "bufferView": 2,
      "byteOffset": 476604,
      "componentType": 5126,
      "count": 845,
      "max": [
        0.9999998807907104,
        1.0,
        0.9999992251396179
      ],
      "min": [
        -0.9999994039535522,
        -0.9999996423721313,
        -1.0
      ],
      "type": "VEC3"
    },
    {
      "bufferView": 1,
      "byteOffset": 155488,
      "componentType": 5126,
      "count": 845,
      "max": [
        0.8750001192092896,
        1.0000001192092896
      ],
      "min": [
        0.125,
        0.0
      ],
      "type": "VEC2"
    },
    {
      "bufferView": 0,
      "byteOffset": 265320,
      "componentType": 5125,
      "count": 3840,
      "type": "SCALAR"
    }
  ],
  "asset": {
    "extras": {
      "author": "jaspermateodev (https://sketchfab.com/jaspermateodev)",
      "license": "CC-BY-4.0 (http://creativecommons.org/licenses/by/4.0/)",
      "source": "https://sketchfab.com/3d-models/doodle-jump-ac3490fd84bc470b9d1a7ce46cd229fb",
      "title": "Doodle Jump"
    },
    "generator": "Sketchfab-14.64.0",
    "version": "2.0"
  },
  "bufferViews": [
    {
      "buffer": 0,
      "byteLength": 280680,
      "name": "floatBufferViews",
      "target": 34963
    },
    {
      "buffer": 0,
      "byteLength": 162248,
      "byteOffset": 280680,
      "byteStride": 8,
      "name": "floatBufferViews",
      "target": 34962
    },
    {
      "buffer": 0,
      "byteLength": 486744,
      "byteOffset": 442928,
      "byteStride": 12,
      "name": "floatBufferViews",
      "target": 34962
    }
  ],
  "buffers": [
    {
      "byteLength": 929672,
      "uri": "scene.bin"
    }
  ],
  "materials": [
    {
      "doubleSided": true,
      "name": "Material.001",
      "pbrMetallicRoughness": {
        "baseColorFactor": [
          0.685401,
          0.999987,
          0.0927067,
          1.0
        ],
        "metallicFactor": 0.0,
        "roughnessFactor": 0.578704
      }
    },
    {
      "doubleSided": true,
      "name": "Material.002",
      "pbrMetallicRoughness": {
        "baseColorFactor": [
          0.7414362234565739,
          0.7926760664667007,
          0.02192257580722266,
          1.0
        ],
        "metallicFactor": 0.0,
        "roughnessFactor": 0.4
      }
    },
    {
      "doubleSided": true,
      "name": "Material.005",
      "pbrMetallicRoughness": {
        "baseColorFactor": [
          0.0,
          0.0,
          0.0,
          1.0
        ],
        "metallicFactor": 0.0,
        "roughnessFactor": 0.5
      }
    },
    {
      "doubleSided": true,
      "name": "Material.006",
      "pbrMetallicRoughness": {
        "baseColorFactor": [
          0.0899003,
          0.401973,
          0.0899003,
          1.0
        ],
        "metallicFactor": 0.0
      }
    },
    {
      "doubleSided": true,
      "name": "Material.003",
      "pbrMetallicRoughness": {
        "baseColorFactor": [
          0.0,
          0.0,
          0.0,
          1.0
        ],
        "metallicFactor": 0.0,
        "roughnessFactor": 0.490741
      }
    }
  ],
  "meshes": [
    {
      "name": "Object_0",
      "primitives": [
        {
          "attributes": {
            "NORMAL": 1,
            "POSITION": 0,
            "TEXCOORD_0": 2
          },
          "indices": 3,
          "material": 0,
          "mode": 4
        }
      ]
    },
    {
      "name": "Object_1",
      "primitives": [
        {
          "attributes": {
            "NORMAL": 5,
            "POSITION": 4,
            "TEXCOORD_0": 6
          },
          "indices": 7,
          "material": 1,
          "mode": 4
        }
      ]
    },
    {
      "name": "Object_2",
      "primitives": [
        {
          "attributes": {
            "NORMAL": 9,
            "POSITION": 8,
            "TEXCOORD_0": 10
          },
          "indices": 11,
          "material": 2,
          "mode": 4
        }
      ]
    },
    {
      "name": "Object_3",
      "primitives": [
        {
          "attributes": {
            "NORMAL": 13,
            "POSITION": 12,
            "TEXCOORD_0": 14
          },
          "indices": 15,
          "material": 3,
          "mode": 4
        }
      ]
    },
    {
      "name": "Object_4",
      "primitives": [
        {
          "attributes": {
            "NORMAL": 17,
            "POSITION": 16,
            "TEXCOORD_0": 18
          },
          "indices": 19,
          "material": 4,
          "mode": 4
        }
      ]
    },
    {
      "name": "Object_5",
      "primitives": [
        {
          "attributes": {
            "NORMAL": 21,
            "POSITION": 20,
            "TEXCOORD_0": 22
          },
          "indices": 23,
          "material": 4,
          "mode": 4
        }
      ]
    },
    {
      "name": "Object_6",
      "primitives": [
        {
          "attributes": {
            "NORMAL": 25,
            "POSITION": 24,
            "TEXCOORD_0": 26
          },
          "indices": 27,
          "material": 4,
          "mode": 4
        }
      ]
    },
    {
      "name": "Object_7",
      "primitives": [
        {
          "attributes": {
            "NORMAL": 29,
            "POSITION": 28,
            "TEXCOORD_0": 30
          },
          "indices": 31,
          "material": 4,
          "mode": 4
        }
      ]
    },
    {
      "name": "Object_8",
      "primitives": [
        {
          "attributes": {
            "NORMAL": 33,
            "POSITION": 32,
            "TEXCOORD_0": 34
          },
          "indices": 35,
          "material": 4,
          "mode": 4
        }
      ]
    }
  ],
  "nodes": [
    {
      "children": [
        1
      ],
      "matrix": [
        1.0,
        0.0,
        0.0,
        0.0,
        0.0,
        2.220446049250313e-16,
        -1.0,
        0.0,
        0.0,
        1.0,
        2.220446049250313e-16,
        0.0,
        0.0,
        0.0,
        0.0,
        1.0
      ],
      "name": "Sketchfab_model"
    },
    {
      "children": [
        2
      ],
      "name": "root"
    },
    {
      "children": [
        3,
        8,
        10,
        12,
        14,
        16
      ],
      "matrix": [
        1.0,
        0.0,
        0.0,
        0.0,
        0.0,
        2.220446049250313e-16,
        1.0,
        0.0,
        0.0,
        -1.0,
        2.220446049250313e-16,
        0.0,
        0.0,
        0.0,
        0.0,
        1.0
      ],
      "name": "GLTF_SceneRootNode"
    },
    {
      "children": [
        4,
        5,
        6,
        7
      ],
      "matrix": [
        0.030604973384016243,
        0.0,
        -0.9995315580831672,
        0.0,
        0.0,
        1.0,
        0.0,
        0.0,
        0.9995315580831672,
        0.0,
        0.030604973384016243,
        0.0,
        0.2469278872013092,
        1.8170276880264282,
        0.22781623899936676,
        1.0
      ],
      "name": "Sphere_0"
    },
    {
      "mesh": 0,
      "name": "Object_4"
    },
    {
      "mesh": 1,
      "name": "Object_5"
    },
    {
      "mesh": 2,
      "name": "Object_6"
    },
    {
      "mesh": 3,
      "name": "Object_7"
    },
    {
      "children": [
        9
      ],
      "matrix": [
        0.0028998413563425265,
        0.0,
        -0.09470627249794676,
        0.0,
        0.0,
        0.09475065767765045,
        -0.0,
        0.0,
        0.09470627249794676,
        0.0,
        0.0028998413563425265,
        0.0,
        0.7983077168464661,
        2.1558382511138916,
        -0.2061411589384079,
        1.0
      ],
      "name": "Sphere.001_1"
    },
    {
      "mesh": 4,
      "name": "Object_9"
    },
    {
      "children": [
        11
      ],
      "matrix": [
        0.002424511303910521,
        0.0,
        -0.07918241034816802,
        0.0,
        0.0,
        0.0792195200920105,
        0.0,
        0.0,
        0.07918241034816802,
        0.0,
        0.002424511303910521,
        0.0,
        0.47482430934906006,
        0.02837318181991577,
        0.23479504883289337,
        1.0
      ],
      "name": "Cube_2"
    },
    {
      "mesh": 5,
      "name": "Object_11"
    },
    {
      "children": [
        13
      ],
      "matrix": [
        0.006375651869251415,
        0.0,
        -0.07896254445527048,
        0.0,
        0.0,
        0.0792195200920105,
        0.0,
        0.0,
        0.07896254445527048,
        0.0,
        0.006375651869251415,
        0.0,
        -0.7174261808395386,
        0.02837318181991577,
        0.1763748824596405,
        1.0
      ],
      "name": "Cube.001_3"
    },
    {
      "mesh": 6,
      "name": "Object_13"
    },
    {
      "children": [
        15
      ],
      "matrix": [
        0.030683347818437394,
        0.0,
        -0.06692523543426428,
        0.0,
        0.0,
        0.07362373173236847,
        0.0,
        0.0,
        0.06692523543426428,
        0.0,
        0.030683347818437394,
        0.0,
        -0.12912744283676147,
        0.04891425371170044,
        0.7484521865844727,
        1.0
      ],
      "name": "Cube.002_4"
    },
    {
      "mesh": 7,
      "name": "Object_15"
    },
    {
      "children": [
        17
      ],
      "matrix": [
        0.002424511303910521,
        0.0,
        -0.07918241034816802,
        0.0,
        0.0,
        0.0792195200920105,
        -0.0,
        0.0,
        0.07918241034816802,
        0.0,
        0.002424511303910521,
        0.0,
        -0.09327332675457001,
        0.02837318181991577,
        -0.4224993586540222,
        1.0
      ],
      "name": "Cube.003_5"
    },
    {
      "mesh": 8,
      "name": "Object_17"
    }
  ],
  "scene": 0,
  "scenes": [
    {
      "name": "Sketchfab_Scene",
      "nodes": [
        0
      ]
    }
  ]
}
